<?xml version="1.0" encoding="UTF-8" standalone="no"?>
<!-- Created with Inkscape (http://www.inkscape.org/) -->

<svg
   xmlns:dc="http://purl.org/dc/elements/1.1/"
   xmlns:cc="http://creativecommons.org/ns#"
   xmlns:rdf="http://www.w3.org/1999/02/22-rdf-syntax-ns#"
   xmlns:svg="http://www.w3.org/2000/svg"
   xmlns="http://www.w3.org/2000/svg"
   xmlns:xlink="http://www.w3.org/1999/xlink"
   xmlns:sodipodi="http://sodipodi.sourceforge.net/DTD/sodipodi-0.dtd"
   xmlns:inkscape="http://www.inkscape.org/namespaces/inkscape"
   width="400"
   height="300"
   id="svg2"
   version="1.1"
   inkscape:version="0.48.2 r9819"
   sodipodi:docname="deathspeak-w.svg">
  <defs
     id="defs4">
    <linearGradient
       id="linearGradient6888">
      <stop
         style="stop-color:#3d4c60;stop-opacity:1;"
         offset="0"
         id="stop6890" />
      <stop
         style="stop-color:#24324a;stop-opacity:1;"
         offset="1"
         id="stop6892" />
    </linearGradient>
    <linearGradient
       id="linearGradient6768">
      <stop
         style="stop-color:#3c70a3;stop-opacity:1;"
         offset="0"
         id="stop6770" />
      <stop
         style="stop-color:#1b3b5b;stop-opacity:1;"
         offset="1"
         id="stop6772" />
    </linearGradient>
    <linearGradient
       id="linearGradient6585">
      <stop
         style="stop-color:#3d6a90;stop-opacity:1;"
         offset="0"
         id="stop6587" />
      <stop
         id="stop6591"
         offset="0.6186986"
         style="stop-color:#386184;stop-opacity:1;" />
      <stop
         style="stop-color:#212e39;stop-opacity:1;"
         offset="1"
         id="stop6589" />
    </linearGradient>
    <linearGradient
       id="linearGradient6542">
      <stop
         style="stop-color:#000000;stop-opacity:0;"
         offset="0"
         id="stop6544" />
      <stop
         style="stop-color:#000000;stop-opacity:0.66153848;"
         offset="1"
         id="stop6546" />
    </linearGradient>
    <linearGradient
       id="linearGradient6465">
      <stop
         id="stop6467"
         offset="0"
         style="stop-color:#39506b;stop-opacity:1;" />
      <stop
         id="stop6469"
         offset="1"
         style="stop-color:#263144;stop-opacity:1;" />
    </linearGradient>
    <linearGradient
       id="linearGradient4950">
      <stop
         style="stop-color:#915299;stop-opacity:1;"
         offset="0"
         id="stop4952" />
      <stop
         style="stop-color:#37213d;stop-opacity:1;"
         offset="1"
         id="stop4954" />
    </linearGradient>
    <linearGradient
       id="linearGradient4942">
      <stop
         style="stop-color:#517eb6;stop-opacity:1;"
         offset="0"
         id="stop4944" />
      <stop
         style="stop-color:#253c58;stop-opacity:1;"
         offset="1"
         id="stop4946" />
    </linearGradient>
    <inkscape:path-effect
       effect="envelope"
       id="path-effect4227"
       is_visible="true"
       yy="true"
       xx="true"
       bendpath1="m 697.22002,527.67368 c 3.02887,1.16929 5.8441,0.81851 8.76615,0.81851 2.92204,0 5.8441,0.11693 8.76614,-0.81851"
       bendpath2="m 715.07277,528.1414 0,2.91519"
       bendpath3="m 697.1132,530.82275 c 2.60161,1.05235 5.8441,1.16927 8.76614,1.16927 2.92206,0 6.16456,-0.11692 8.76616,-1.16927"
       bendpath4="m 697.54047,528.1414 0,2.91519"
       bendpath1-nodetypes="ccc"
       bendpath3-nodetypes="ccc" />
    <inkscape:path-effect
       effect="bend_path"
       id="path-effect4225"
       is_visible="true"
       bendpath="m 682.56018,558.37297 20.73128,0"
       prop_scale="1"
       scale_y_rel="false"
       vertical="false"
       bendpath-nodetypes="cc" />
    <linearGradient
       id="linearGradient3945">
      <stop
         style="stop-color:#ffffff;stop-opacity:1;"
         offset="0"
         id="stop3947" />
      <stop
         id="stop3953"
         offset="0.75342464"
         style="stop-color:#f1f3e0;stop-opacity:1;" />
      <stop
         style="stop-color:#cccfa5;stop-opacity:1;"
         offset="1"
         id="stop3949" />
    </linearGradient>
    <filter
       id="filter4051"
       inkscape:label="Pencil"
       x="0"
       y="0"
       width="1"
       height="1"
       inkscape:menu="Image effects"
       inkscape:menu-tooltip="Detect color edges and retrace them in grayscale"
       color-interpolation-filters="sRGB">
      <feConvolveMatrix
         id="feConvolveMatrix4053"
         bias="-1.8571428571428572"
         result="result0"
         preserveAlpha="true"
         targetY="1"
         targetX="1"
         divisor="701.61290322580646"
         in="SourceGraphic"
         kernelMatrix="1 1 1 1 -8 1 1 1 1"
         order="3 3" />
      <feColorMatrix
         id="feColorMatrix4055"
         values="-0.15 -0.3 -0.05 0 1 -0.15 -0.3 -0.05 0 1 -0.15 -0.3 -0.05 0 1 0 0 0 1 0"
         result="result3" />
    </filter>
    <filter
       id="filter4057"
       x="0"
       y="0"
       width="1"
       height="1"
       inkscape:menu-tooltip="Give lead pencil or chromolithography or engraving or other effects to images and material filled objects"
       inkscape:menu="Image effects"
       inkscape:label="Drawing"
       color-interpolation-filters="sRGB">
      <feGaussianBlur
         id="feGaussianBlur4059"
         stdDeviation="1.286468085106383"
         result="result8" />
      <feConvolveMatrix
         id="feConvolveMatrix4061"
         bias="0"
         result="result0"
         preserveAlpha="true"
         targetY="1"
         targetX="1"
         divisor="1"
         in="result8"
         kernelMatrix="1 1 1 1 -8 1 1 1 1 "
         order="3 3" />
      <feColorMatrix
         id="feColorMatrix4063"
         values="0 -6 0 0 1 0 -6 0 0 1 0 -6 0 0 1 0 0 0 1 0 "
         result="result3" />
      <feComposite
         id="feComposite4065"
         in2="result3"
         k3="0.3"
         k1="1"
         operator="arithmetic"
         in="SourceGraphic"
         result="fbSourceGraphic"
         k2="0"
         k4="0" />
      <feGaussianBlur
         id="feGaussianBlur4067"
         stdDeviation="0.01"
         in="fbSourceGraphic"
         result="result7" />
      <feBlend
         id="feBlend4069"
         in2="result7"
         in="result7"
         mode="multiply"
         result="result9" />
      <feComposite
         id="feComposite4071"
         operator="in"
         in2="result9" />
    </filter>
    <radialGradient
       inkscape:collect="always"
       xlink:href="#linearGradient3945-3"
       id="radialGradient3951-2"
       cx="638.86688"
       cy="516.30743"
       fx="638.86688"
       fy="516.30743"
       r="35.466228"
       gradientTransform="matrix(-0.02397751,1.5978263,-1.1342331,-0.01702068,1258.2769,-483.27205)"
       gradientUnits="userSpaceOnUse" />
    <linearGradient
       id="linearGradient3945-3">
      <stop
         style="stop-color:#ffffff;stop-opacity:1;"
         offset="0"
         id="stop3947-7" />
      <stop
         id="stop3953-6"
         offset="0.75342464"
         style="stop-color:#f1f3e0;stop-opacity:1;" />
      <stop
         style="stop-color:#cccfa5;stop-opacity:1;"
         offset="1"
         id="stop3949-0" />
    </linearGradient>
    <radialGradient
       inkscape:collect="always"
       xlink:href="#linearGradient3945-2"
       id="radialGradient3951-0"
       cx="638.86688"
       cy="516.30743"
       fx="638.86688"
       fy="516.30743"
       r="35.466228"
       gradientTransform="matrix(-0.02397751,1.5978263,-1.1342331,-0.01702068,1301.8613,-532.92968)"
       gradientUnits="userSpaceOnUse" />
    <linearGradient
       id="linearGradient3945-2">
      <stop
         style="stop-color:#ffffff;stop-opacity:1;"
         offset="0"
         id="stop3947-0" />
      <stop
         id="stop3953-5"
         offset="0.75342464"
         style="stop-color:#f1f3e0;stop-opacity:1;" />
      <stop
         style="stop-color:#cccfa5;stop-opacity:1;"
         offset="1"
         id="stop3949-9" />
    </linearGradient>
    <inkscape:path-effect
       effect="envelope"
       id="path-effect4227-4"
       is_visible="true"
       yy="true"
       xx="true"
       bendpath1="m 603.89162,522.41045 c 3.02887,1.16929 5.8441,0.81851 8.76615,0.81851 2.92204,0 5.8441,0.11693 8.76614,-0.81851"
       bendpath2="m 621.74437,522.87817 0,2.91519"
       bendpath3="m 603.7848,525.55952 c 2.60161,1.05235 5.8441,1.16927 8.76614,1.16927 2.92206,0 6.16456,-0.11692 8.76616,-1.16927"
       bendpath4="m 604.21207,522.87817 0,2.91519"
       bendpath1-nodetypes="ccc"
       bendpath3-nodetypes="ccc" />
    <inkscape:path-effect
       effect="envelope"
       id="path-effect4227-4-4"
       is_visible="true"
       yy="true"
       xx="true"
       bendpath1="m 614.50138,609.30941 c 3.02887,1.16929 5.8441,0.81851 8.76615,0.81851 2.92204,0 5.8441,0.11693 8.76614,-0.81851"
       bendpath2="m 632.35413,609.77713 0,2.91519"
       bendpath3="m 614.39456,612.45848 c 2.60161,1.05235 5.8441,1.16927 8.76614,1.16927 2.92206,0 6.16456,-0.11692 8.76616,-1.16927"
       bendpath4="m 614.82183,609.77713 0,2.91519"
       bendpath1-nodetypes="ccc"
       bendpath3-nodetypes="ccc" />
    <radialGradient
       r="35.466228"
       fy="516.30743"
       fx="638.86688"
       cy="516.30743"
       cx="638.86688"
       gradientTransform="matrix(-0.02397751,1.5978263,-1.1342331,-0.01702068,1209.9818,-538.63773)"
       gradientUnits="userSpaceOnUse"
       id="radialGradient4247-8"
       xlink:href="#linearGradient3945-2-4"
       inkscape:collect="always" />
    <linearGradient
       id="linearGradient3945-2-4">
      <stop
         style="stop-color:#ffffff;stop-opacity:1;"
         offset="0"
         id="stop3947-0-0" />
      <stop
         id="stop3953-5-8"
         offset="0.75342464"
         style="stop-color:#f1f3e0;stop-opacity:1;" />
      <stop
         style="stop-color:#cccfa5;stop-opacity:1;"
         offset="1"
         id="stop3949-9-5" />
    </linearGradient>
    <radialGradient
       r="35.466228"
       fy="516.30743"
       fx="638.86688"
       cy="516.30743"
       cx="638.86688"
       gradientTransform="matrix(-0.02397751,1.5978263,-1.1342331,-0.01702068,1220.5916,-451.73877)"
       gradientUnits="userSpaceOnUse"
       id="radialGradient4334-4"
       xlink:href="#linearGradient3945-2-4-8"
       inkscape:collect="always" />
    <linearGradient
       id="linearGradient3945-2-4-8">
      <stop
         style="stop-color:#ffffff;stop-opacity:1;"
         offset="0"
         id="stop3947-0-0-4" />
      <stop
         id="stop3953-5-8-8"
         offset="0.75342464"
         style="stop-color:#f1f3e0;stop-opacity:1;" />
      <stop
         style="stop-color:#cccfa5;stop-opacity:1;"
         offset="1"
         id="stop3949-9-5-4" />
    </linearGradient>
    <radialGradient
       r="35.466228"
       fy="516.30743"
       fx="638.86688"
       cy="516.30743"
       cx="638.86688"
       gradientTransform="matrix(-0.02397751,1.5978263,-1.1342331,-0.01702068,1220.5916,-451.73877)"
       gradientUnits="userSpaceOnUse"
       id="radialGradient4334-2"
       xlink:href="#linearGradient3945-2-4-6"
       inkscape:collect="always" />
    <linearGradient
       id="linearGradient3945-2-4-6">
      <stop
         style="stop-color:#ffffff;stop-opacity:1;"
         offset="0"
         id="stop3947-0-0-45" />
      <stop
         id="stop3953-5-8-7"
         offset="0.75342464"
         style="stop-color:#f1f3e0;stop-opacity:1;" />
      <stop
         style="stop-color:#cccfa5;stop-opacity:1;"
         offset="1"
         id="stop3949-9-5-9" />
    </linearGradient>
    <radialGradient
       r="35.466228"
       fy="516.30743"
       fx="638.86688"
       cy="516.30743"
       cx="638.86688"
       gradientTransform="matrix(-0.02397751,1.5978263,-1.1342331,-0.01702068,1276.4206,-203.04068)"
       gradientUnits="userSpaceOnUse"
       id="radialGradient4539-1"
       xlink:href="#linearGradient3945-2-4-6-8"
       inkscape:collect="always" />
    <linearGradient
       id="linearGradient3945-2-4-6-8">
      <stop
         style="stop-color:#ffffff;stop-opacity:1;"
         offset="0"
         id="stop3947-0-0-45-9" />
      <stop
         id="stop3953-5-8-7-9"
         offset="0.75342464"
         style="stop-color:#f1f3e0;stop-opacity:1;" />
      <stop
         style="stop-color:#cccfa5;stop-opacity:1;"
         offset="1"
         id="stop3949-9-5-9-0" />
    </linearGradient>
    <radialGradient
       r="35.466228"
       fy="516.30743"
       fx="638.86688"
       cy="516.30743"
       cx="638.86688"
       gradientTransform="matrix(-0.02397751,1.5978263,-1.1342331,-0.01702068,986.23701,-277.66115)"
       gradientUnits="userSpaceOnUse"
       id="radialGradient4539-8"
       xlink:href="#linearGradient3945-2-4-6-6"
       inkscape:collect="always" />
    <linearGradient
       id="linearGradient3945-2-4-6-6">
      <stop
         style="stop-color:#ffffff;stop-opacity:1;"
         offset="0"
         id="stop3947-0-0-45-91" />
      <stop
         id="stop3953-5-8-7-1"
         offset="0.75342464"
         style="stop-color:#f1f3e0;stop-opacity:1;" />
      <stop
         style="stop-color:#cccfa5;stop-opacity:1;"
         offset="1"
         id="stop3949-9-5-9-9" />
    </linearGradient>
    <linearGradient
       id="linearGradient3945-2-4-6-6-3">
      <stop
         style="stop-color:#ffffff;stop-opacity:1;"
         offset="0"
         id="stop3947-0-0-45-91-6" />
      <stop
         id="stop3953-5-8-7-1-6"
         offset="0.75342464"
         style="stop-color:#f1f3e0;stop-opacity:1;" />
      <stop
         style="stop-color:#cccfa5;stop-opacity:1;"
         offset="1"
         id="stop3949-9-5-9-9-5" />
    </linearGradient>
    <linearGradient
       inkscape:collect="always"
       xlink:href="#linearGradient4942"
       id="linearGradient4948"
       x1="152.93829"
       y1="363.07706"
       x2="209.16258"
       y2="363.07706"
       gradientUnits="userSpaceOnUse"
       gradientTransform="translate(209.99567,3.9637791)" />
    <linearGradient
       inkscape:collect="always"
       xlink:href="#linearGradient6465-4"
       id="linearGradient6471-2"
       x1="156.54926"
       y1="338.55273"
       x2="204.3381"
       y2="338.55273"
       gradientUnits="userSpaceOnUse"
       gradientTransform="translate(0.71449822,0.71449822)" />
    <linearGradient
       id="linearGradient6465-4">
      <stop
         id="stop6467-6"
         offset="0"
         style="stop-color:#39506b;stop-opacity:1;" />
      <stop
         id="stop6469-9"
         offset="1"
         style="stop-color:#263144;stop-opacity:1;" />
    </linearGradient>
    <linearGradient
       inkscape:collect="always"
       xlink:href="#linearGradient6465-9"
       id="linearGradient6471-9"
       x1="156.54926"
       y1="338.55273"
       x2="204.3381"
       y2="338.55273"
       gradientUnits="userSpaceOnUse"
       gradientTransform="translate(0.71449822,0.71449822)" />
    <linearGradient
       id="linearGradient6465-9">
      <stop
         id="stop6467-0"
         offset="0"
         style="stop-color:#39506b;stop-opacity:1;" />
      <stop
         id="stop6469-8"
         offset="1"
         style="stop-color:#263144;stop-opacity:1;" />
    </linearGradient>
    <linearGradient
       y2="338.55273"
       x2="204.3381"
       y1="338.55273"
       x1="156.54926"
       gradientTransform="translate(0.7145,0.71449002)"
       gradientUnits="userSpaceOnUse"
       id="linearGradient6506-2-8"
       xlink:href="#linearGradient6542-9"
       inkscape:collect="always" />
    <linearGradient
       id="linearGradient6542-9">
      <stop
         style="stop-color:#000000;stop-opacity:0;"
         offset="0"
         id="stop6544-2" />
      <stop
         style="stop-color:#000000;stop-opacity:0.27692309;"
         offset="1"
         id="stop6546-0" />
    </linearGradient>
    <linearGradient
       y2="338.55273"
       x2="204.3381"
       y1="338.55273"
       x1="156.54926"
       gradientTransform="translate(208.56668,3.2492727)"
       gradientUnits="userSpaceOnUse"
       id="linearGradient6563"
       xlink:href="#linearGradient6542-9"
       inkscape:collect="always" />
    <radialGradient
       inkscape:collect="always"
       xlink:href="#linearGradient6585"
       id="radialGradient6583"
       cx="183.13791"
       cy="330.97415"
       fx="183.13791"
       fy="330.97415"
       r="23.894419"
       gradientTransform="matrix(-0.99964231,-0.02674402,0.01057215,-0.39516775,567.06796,474.96401)"
       gradientUnits="userSpaceOnUse" />
    <linearGradient
       inkscape:collect="always"
       xlink:href="#linearGradient6768"
       id="linearGradient6774"
       x1="151.27774"
       y1="354.67047"
       x2="156.56044"
       y2="361.39182"
       gradientUnits="userSpaceOnUse"
       gradientTransform="translate(207.85218,2.5347827)" />
    <linearGradient
       inkscape:collect="always"
       xlink:href="#linearGradient6768-6"
       id="linearGradient6774-4"
       x1="151.27774"
       y1="354.67047"
       x2="156.56044"
       y2="361.39182"
       gradientUnits="userSpaceOnUse" />
    <linearGradient
       id="linearGradient6768-6">
      <stop
         style="stop-color:#3c70a3;stop-opacity:1;"
         offset="0"
         id="stop6770-2" />
      <stop
         style="stop-color:#1b3b5b;stop-opacity:1;"
         offset="1"
         id="stop6772-6" />
    </linearGradient>
    <linearGradient
       gradientTransform="matrix(-0.99672515,0,0,1.1414381,573.23037,-49.517482)"
       y2="362.04996"
       x2="159.29425"
       y1="360.78256"
       x1="154.22469"
       gradientUnits="userSpaceOnUse"
       id="linearGradient6793"
       xlink:href="#linearGradient6768-6"
       inkscape:collect="always" />
    <radialGradient
       inkscape:collect="always"
       xlink:href="#linearGradient6888"
       id="radialGradient6896"
       cx="145.62636"
       cy="366.67792"
       fx="145.62636"
       fy="366.67792"
       r="3.0231652"
       gradientTransform="matrix(0.47171931,2.1429223,-0.57529986,0.1221838,493.97715,8.7017067)"
       gradientUnits="userSpaceOnUse" />
    <radialGradient
       inkscape:collect="always"
       xlink:href="#linearGradient6888-6"
       id="radialGradient6896-6"
       cx="145.62636"
       cy="366.67792"
       fx="145.62636"
       fy="366.67792"
       r="3.0231652"
       gradientTransform="matrix(0.47171931,2.1429223,-0.57529986,0.1221838,286.12497,6.166924)"
       gradientUnits="userSpaceOnUse" />
    <linearGradient
       id="linearGradient6888-6">
      <stop
         style="stop-color:#3d4c60;stop-opacity:1;"
         offset="0"
         id="stop6890-3" />
      <stop
         style="stop-color:#24324a;stop-opacity:1;"
         offset="1"
         id="stop6892-0" />
    </linearGradient>
    <radialGradient
       r="3.0231652"
       fy="364.20056"
       fx="148.5076"
       cy="364.20056"
       cx="148.5076"
       gradientTransform="matrix(0.5605021,-1.0767667,0.48015773,0.25577146,160.99656,447.64374)"
       gradientUnits="userSpaceOnUse"
       id="radialGradient6913"
       xlink:href="#linearGradient6888-6"
       inkscape:collect="always" />
  </defs>
  <sodipodi:namedview
     id="base"
     pagecolor="#ffffff"
     bordercolor="#666666"
     borderopacity="1.0"
     inkscape:pageopacity="0.0"
     inkscape:pageshadow="2"
     inkscape:zoom="1.115846"
     inkscape:cx="349.34125"
     inkscape:cy="179.70395"
     inkscape:document-units="px"
     inkscape:current-layer="layer2"
     showgrid="false"
     inkscape:snap-page="true"
     inkscape:window-width="1024"
     inkscape:window-height="744"
     inkscape:window-x="0"
     inkscape:window-y="24"
     inkscape:window-maximized="1"
     inkscape:snap-nodes="false"
     inkscape:snap-global="false"
     showguides="true"
     inkscape:guide-bbox="true"
     fit-margin-top="0"
     fit-margin-left="0"
     fit-margin-right="0"
     fit-margin-bottom="0" />
  <metadata
     id="metadata7">
    <rdf:RDF>
      <cc:Work
         rdf:about="">
        <dc:format>image/svg+xml</dc:format>
        <dc:type
           rdf:resource="http://purl.org/dc/dcmitype/StillImage" />
        <dc:title></dc:title>
      </cc:Work>
    </rdf:RDF>
  </metadata>
  <g
     inkscape:groupmode="layer"
     id="layer2"
     inkscape:label="bak"
     style="display:inline"
     transform="translate(-192,-200)">
    <rect
       style="color:#000000;fill:#f1f1f1;fill-opacity:1;fill-rule:nonzero;stroke:none;stroke-width:1;marker:none;visibility:visible;display:inline;overflow:visible;enable-background:accumulate"
       id="rect3756"
       width="400"
       height="300"
       x="192"
       y="200" />
  </g>
  <g
     inkscape:groupmode="layer"
     id="layer8"
     inkscape:label="foots"
     sodipodi:insensitive="true"
     transform="translate(-192,-200)">
    <path
       style="color:#000000;fill:#0e253c;fill-opacity:1;fill-rule:nonzero;stroke:#000000;stroke-width:0.42506775;stroke-linecap:round;stroke-linejoin:miter;stroke-miterlimit:4;stroke-opacity:1;stroke-dashoffset:0;marker:none;visibility:visible;display:inline;overflow:visible;enable-background:accumulate"
       d="m 407.10507,394.37788 c 0.004,1.34218 -1.36101,1.89659 -7.61555,2.10717 -6.25452,0.21061 -7.20559,-0.89131 -7.20559,-2.22708 0,-3.97448 3.08307,-6.83657 7.25934,-6.83657 4.17625,0 7.48308,2.25603 7.5618,6.95648 z"
       id="path6669-3"
       inkscape:connector-curvature="0"
       sodipodi:nodetypes="czcsc" />
    <path
       style="color:#000000;fill:#0e253c;fill-opacity:1;fill-rule:nonzero;stroke:#000000;stroke-width:0.42506775;stroke-linecap:round;stroke-linejoin:miter;stroke-miterlimit:4;stroke-opacity:1;stroke-dashoffset:0;marker:none;visibility:visible;display:inline;overflow:visible;enable-background:accumulate"
       d="m 387.21044,393.78743 c 0.004,1.34219 -1.36101,1.89658 -7.61555,2.10718 -6.25452,0.21061 -7.20559,-0.89133 -7.20559,-2.22709 0,-3.97447 3.08307,-6.83656 7.25933,-6.83656 4.17627,0 7.48309,2.25603 7.56181,6.95647 z"
       id="path6669"
       inkscape:connector-curvature="0"
       sodipodi:nodetypes="czcsc" />
  </g>
  <g
     inkscape:groupmode="layer"
     id="layer3"
     inkscape:label="body"
     style="display:inline"
     sodipodi:insensitive="true"
     transform="translate(-192,-200)">
    <path
       style="fill:url(#linearGradient4948);fill-opacity:1;stroke:#000000;stroke-width:1.13399398px;stroke-linecap:butt;stroke-linejoin:miter;stroke-opacity:1"
       d="m 388.67788,342.86277 c -5.51119,0.1571 -11.56806,-0.0957 -16.31402,3.01803 -3.77748,2.47831 -6.59678,6.91622 -8.15702,11.46851 -1.09759,3.20244 -0.36251,6.84088 -0.5438,10.26132 -0.27113,5.11561 -0.53128,10.23181 -0.81349,15.34683 -0.12905,2.33918 -0.30559,4.36129 -0.40231,7.0167 3.76167,0.39988 11.2938,1.77236 16.99046,2.12766 6.58698,0.41083 13.20313,0.21673 19.79935,0 5.97428,-0.19629 14.12187,0.88447 17.89384,-1.17712 0.80244,-3.34921 -0.079,-4.67905 -0.17536,-7.01669 -0.39027,-9.46409 1.50602,-19.5569 -1.6314,-28.36952 -1.46711,-4.12092 -4.10577,-8.14539 -7.61321,-10.26129 -5.61056,-3.38463 -12.64949,-2.59643 -19.03304,-2.41443 z"
       id="path4782"
       inkscape:connector-curvature="0"
       sodipodi:nodetypes="aaaaacaacaaaa" />
    <path
       style="color:#000000;fill:#000000;fill-opacity:1;fill-rule:nonzero;stroke:none;stroke-width:0.5;marker:none;visibility:visible;display:inline;overflow:visible;enable-background:accumulate"
       d="m 403.14906,338.55881 c 0,2.62485 -8.67302,7.32924 -14.53519,7.32924 -5.86217,0 -16.7607,-4.72983 -15.43137,-6.99317 4.14483,1.07188 9.00909,2.08066 14.87126,2.08066 5.86217,0 10.95046,-0.78473 15.0953,-2.41673 z"
       id="path6942"
       inkscape:connector-curvature="0"
       sodipodi:nodetypes="cscsc" />
  </g>
  <g
     inkscape:groupmode="layer"
     id="layer4"
     inkscape:label="lines"
     style="opacity:0.95999995;display:inline"
     sodipodi:insensitive="true"
     transform="translate(-192,-200)">
    <path
       style="fill:#000000;fill-opacity:0.47488583;stroke:none"
       d="m 367.90714,350.48149 c 5.48145,2.40325 7.274,3.16236 18.81174,2.95291 12.10563,-0.21979 20.14512,-0.32867 25.86709,-3.6318 1.54601,2.53333 2.28851,4.70295 3.10826,7.13089 -7.244,3.67843 -13.02811,4.16548 -26.2415,4.11274 -13.43835,-0.0537 -18.91363,-1.03728 -24.32153,-3.41098 0.64989,-2.02496 0.61301,-3.20171 2.77594,-7.15376 z"
       id="path4886"
       inkscape:connector-curvature="0"
       sodipodi:nodetypes="csccscc" />
    <path
       style="fill:#000000;fill-opacity:0.47488583;stroke:none"
       d="m 364.02606,365.82996 c 4.99238,2.89195 12.14378,3.39009 23.68151,3.18341 12.10563,-0.21686 22.60963,-0.10243 29.64034,-3.87076 0.64942,4.97613 1.00345,6.11791 1.37512,8.63752 -7.46805,3.73257 -18.90611,3.22498 -31.57123,3.17295 -13.43833,-0.0552 -19.52111,-0.14737 -23.69677,-2.57917 0.42584,-4.02635 0.45301,-5.67678 0.57103,-8.54395 z"
       id="path4886-4"
       inkscape:connector-curvature="0"
       sodipodi:nodetypes="csccscc" />
    <path
       style="fill:#000000;fill-opacity:0.47488583;stroke:none"
       d="m 363.12492,381.43434 c 7.86742,3.53552 13.30957,2.75785 26.26661,2.54599 13.59481,-0.22227 19.60533,0.85284 27.31955,-2.56998 0.17585,4.49563 0.94907,6.08036 0.0724,9.53391 -12.03502,4.39996 -13.79298,1.22754 -28.0161,1.1742 -15.09143,-0.0566 -16.22621,-0.63273 -26.16636,-2.38033 0.37332,-3.27003 0.10375,-5.2445 0.5239,-8.30379 z"
       id="path4886-4-9"
       inkscape:connector-curvature="0"
       sodipodi:nodetypes="csccscc" />
  </g>
  <g
     inkscape:groupmode="layer"
     id="layer9"
     inkscape:label="arms"
     sodipodi:insensitive="true"
     transform="translate(-192,-200)">
    <path
       style="fill:url(#linearGradient6774);fill-opacity:1;stroke:#000000;stroke-width:0.40000001;stroke-linecap:butt;stroke-linejoin:miter;stroke-miterlimit:4;stroke-opacity:1;stroke-dasharray:none"
       d="m 369.53971,351.22916 c -0.9254,6.60726 -1.8984,11.55759 -4.43651,16.43426 -1.3525,2.59867 -3.86191,7.40571 -6.73365,6.82654 -1.30075,-1.69082 -0.38676,-3.59441 -1.37854,-6.28079 -0.64705,-1.7526 -1.91048,-3.7939 -4.59494,-3.76101 0.0157,-3.35079 3.98291,-3.5237 7.19359,-4.48264 3.01401,-0.90019 4.4286,-4.14999 6.29001,-6.64754 0.86491,-1.16049 0.74907,-3.61232 3.66004,-2.08882 z"
       id="path6766"
       inkscape:connector-curvature="0"
       sodipodi:nodetypes="cscscssc" />
    <path
       style="color:#000000;fill:url(#radialGradient6913);fill-opacity:1;fill-rule:nonzero;stroke:#000000;stroke-width:0.49078116;stroke-linecap:round;stroke-linejoin:miter;stroke-miterlimit:4;stroke-opacity:1;stroke-dashoffset:0;marker:none;visibility:visible;display:inline;overflow:visible;enable-background:accumulate"
       d="m 420.53497,377.86172 c 0.16259,2.47078 -0.75266,4.29569 -2.92766,4.04202 -2.17499,-0.25367 -2.49698,-2.688 -2.18489,-5.1441 0.31211,-2.45609 0.87042,-3.55191 3.04541,-3.29824 2.17499,0.25368 1.90186,1.88855 2.06714,4.40032 z"
       id="path6885-0"
       inkscape:connector-curvature="0"
       sodipodi:nodetypes="sssss" />
    <path
       style="fill:url(#linearGradient6793);fill-opacity:1;stroke:#000000;stroke-width:0.40000001;stroke-linecap:butt;stroke-linejoin:miter;stroke-miterlimit:4;stroke-opacity:1;stroke-dasharray:none"
       d="m 411.44071,348.67638 c 0.92238,7.54177 1.41847,14.63891 2.36923,20.20532 0.56051,3.28174 -1.12475,10.71356 1.73758,10.05248 1.2965,-1.92997 2.67586,-1.88211 4.45317,-1.65378 1.25881,0.16172 0.75639,0.76018 1.57971,-1.94217 -0.96309,-3.28222 -1.12758,-5.2879 -2.43288,-8.3716 -1.36761,-3.23088 -2.51923,-12.51269 -4.37455,-15.36349 -0.86208,-1.32463 -0.74661,-3.58075 -3.33226,-2.92676 z"
       id="path6766-6"
       inkscape:connector-curvature="0"
       sodipodi:nodetypes="cscscssc" />
  </g>
  <g
     inkscape:groupmode="layer"
     id="layer10"
     inkscape:label="hox"
     style="display:inline"
     sodipodi:insensitive="true"
     transform="translate(-192,-200)">
    <path
       style="fill:#6d5423;fill-opacity:1;stroke:#000000;stroke-width:0.57236272;stroke-linecap:butt;stroke-linejoin:miter;stroke-miterlimit:4;stroke-opacity:1;stroke-dasharray:none"
       d="m 337.27001,246.434 8.34218,48.2396 14.87087,101.19436 -5.44056,0.3627 -2.53893,-29.37901 -11.60652,-75.80508 -9.06759,-43.16176 z"
       id="path6776"
       inkscape:connector-curvature="0" />
    <path
       style="fill:#a7b0b6;fill-opacity:1;stroke:#000000;stroke-width:0.44429436;stroke-linecap:butt;stroke-linejoin:miter;stroke-miterlimit:4;stroke-opacity:1;stroke-dasharray:none"
       d="m 320.35623,260.9915 -19.67511,0.011 -20.28993,7.99728 -11.4192,11.49871 -4.34195,18.39785 2.44347,10.99953 9.52189,-21.38423 12.04137,-8.01058 18.39434,-7.49427 15.21174,0.007 18.36884,8.71729 -1.47333,-7.56421 -1.21443,-5.99824 z"
       id="path6831-3"
       inkscape:connector-curvature="0"
       sodipodi:nodetypes="cccccccccccccc" />
    <path
       style="fill:none;stroke:#7b7b7b;stroke-width:1px;stroke-linecap:butt;stroke-linejoin:miter;stroke-opacity:1"
       d="m 294.98533,277.4489 c -1.3869,-0.87512 -1.54051,-2.4208 -2.21793,-3.48532"
       id="path6869"
       inkscape:connector-curvature="0" />
    <path
       style="fill:none;stroke:#868686;stroke-width:1px;stroke-linecap:butt;stroke-linejoin:miter;stroke-opacity:1"
       d="m 298.47066,276.18151 c -1.30738,-1.5644 -2.15027,-3.66684 -2.85163,-5.06956"
       id="path6871"
       inkscape:connector-curvature="0" />
    <path
       style="fill:none;stroke:#898989;stroke-width:1px;stroke-linecap:butt;stroke-linejoin:miter;stroke-opacity:1"
       d="m 278.41716,286.96238 c -0.47912,-1.69718 -0.66609,-1.81553 -1.16011,-3.16203"
       id="path6873"
       inkscape:connector-curvature="0" />
    <path
       style="fill:none;stroke:#707070;stroke-width:1px;stroke-linecap:butt;stroke-linejoin:miter;stroke-opacity:1"
       d="m 273.25407,295.09959 c -1.29677,-1.00544 -0.99947,-1.82666 -1.76984,-3.03724"
       id="path6875"
       inkscape:connector-curvature="0"
       sodipodi:nodetypes="cc" />
    <path
       style="fill:none;stroke:#797979;stroke-width:1px;stroke-linecap:butt;stroke-linejoin:miter;stroke-opacity:1"
       d="m 271.59295,298.45366 c -1.6831,-0.28344 -1.40671,-1.9629 -2.27229,-3.26128"
       id="path6877"
       inkscape:connector-curvature="0"
       sodipodi:nodetypes="cc" />
    <path
       style="fill:none;stroke:#797979;stroke-width:1px;stroke-linecap:butt;stroke-linejoin:miter;stroke-opacity:1"
       d="m 312.48131,272.51613 c 0,-0.8215 0,-1.643 0,-2.4645"
       id="path6881"
       inkscape:connector-curvature="0" />
    <path
       style="fill:none;stroke:#797979;stroke-width:1px;stroke-linecap:butt;stroke-linejoin:miter;stroke-opacity:1"
       d="m 316.29008,272.74017 c -0.0351,-1.51714 0.10221,-2.79481 0.22405,-4.25686"
       id="path6883"
       inkscape:connector-curvature="0" />
    <path
       style="fill:#919da7;fill-opacity:1;stroke:#000000;stroke-width:0.44429436;stroke-linecap:butt;stroke-linejoin:miter;stroke-miterlimit:4;stroke-opacity:1;stroke-dasharray:none"
       d="m 334.91168,250.7763 -30.72191,-3.7748 -26.01775,8.50245 -12.03783,14.50117 -6.48921,11.26585 5.95496,23.63826 6.57566,-23.5099 11.56724,-9.03421 22.34035,-7.77325 16.02911,0.59294 16.81279,8.02119 z"
       id="path6831"
       inkscape:connector-curvature="0"
       sodipodi:nodetypes="cccccccccccc" />
    <path
       style="color:#000000;fill:url(#radialGradient6896);fill-opacity:1;fill-rule:nonzero;stroke:#000000;stroke-width:0.54184705;stroke-linecap:round;stroke-linejoin:miter;stroke-miterlimit:4;stroke-opacity:1;stroke-dashoffset:0;marker:none;visibility:visible;display:inline;overflow:visible;enable-background:accumulate"
       d="m 355.6236,367.86684 c 0.51121,2.7453 1.02035,4.48693 -1.3474,4.48693 -2.36773,0 -4.28716,-2.26242 -4.28716,-5.05327 0,-2.79084 0.44955,-4.09074 2.81728,-4.09074 2.36774,0 2.2976,1.86624 2.81728,4.65708 z"
       id="path6885"
       inkscape:connector-curvature="0"
       sodipodi:nodetypes="sssss" />
  </g>
  <g
     inkscape:groupmode="layer"
     id="layer5"
     inkscape:label="collar"
     style="display:inline"
     sodipodi:insensitive="true"
     transform="translate(-192,-200)">
    <path
       style="fill:url(#radialGradient6583);fill-opacity:1;stroke:#000000;stroke-width:0.52032024;stroke-linecap:butt;stroke-linejoin:miter;stroke-miterlimit:4;stroke-opacity:1;stroke-dasharray:none;display:inline"
       d="m 367.00453,338.07362 c -2.91761,3.98706 -1.40961,3.838 0.59301,7.3036 1.49445,2.58618 5.08242,0.9377 7.53099,1.49968 2.46659,0.56612 9.74865,0.37686 15.61516,0.20624 5.86651,-0.17062 10.41974,0.31954 13.2185,-0.58777 2.79876,-0.9073 8.10192,-2.15697 8.10192,-2.15697 0,0 1.59173,-3.6249 -0.49627,-7.29144 -1.88876,-3.3167 -14.50808,6.25191 -21.36253,6.0638 -5.9488,0.76571 -21.91332,-6.73502 -23.20078,-5.03714 z"
       id="path4748"
       inkscape:connector-curvature="0"
       sodipodi:nodetypes="ccssscscc" />
  </g>
  <g
     inkscape:groupmode="layer"
     id="layer6"
     inkscape:label="collar shadow"
     style="display:inline"
     sodipodi:insensitive="true"
     transform="translate(-192,-200)">
    <path
       style="fill:url(#linearGradient6563);fill-opacity:1;stroke:#000000;stroke-width:0.52032024;stroke-linecap:butt;stroke-linejoin:miter;stroke-miterlimit:4;stroke-opacity:1;stroke-dasharray:none;display:inline"
       d="m 367.00453,338.07362 c -2.91761,3.98706 -1.40961,3.838 0.59301,7.3036 1.49445,2.58618 5.08242,0.9377 7.53099,1.49968 2.46659,0.56612 9.74865,0.37686 15.61516,0.20624 5.86651,-0.17062 10.41974,0.31954 13.2185,-0.58777 2.79876,-0.9073 8.10192,-2.15697 8.10192,-2.15697 0,0 1.59173,-3.6249 -0.49627,-7.29144 -1.88876,-3.3167 -14.50808,6.25191 -21.36253,6.0638 -5.9488,0.76571 -21.91332,-6.73502 -23.20078,-5.03714 z"
       id="path4748-3"
       inkscape:connector-curvature="0"
       sodipodi:nodetypes="ccssscscc" />
  </g>
  <g
     inkscape:label="skull"
     inkscape:groupmode="layer"
     id="layer1"
     transform="translate(-192,-652.36218)"
     style="display:inline"
     sodipodi:insensitive="true">
    <path
       style="color:#000000;fill:url(#radialGradient4539-8);fill-opacity:1;fill-rule:nonzero;stroke:#000000;stroke-width:0.5;stroke-miterlimit:4;stroke-opacity:1;stroke-dasharray:none;marker:none;visibility:visible;display:inline;overflow:visible;enable-background:accumulate"
       d="m 424.05594,760.47768 c 0,22.65969 -15.72343,15.48576 -15.27889,24.21984 0.31921,6.27179 -11.91752,8.93004 -21.71125,8.93004 -9.79374,0 -19.69856,-3.2937 -19.66495,-9.08117 0.0541,-9.3266 -14.27737,-0.34674 -14.27737,-24.06871 0,-19.82412 15.87876,-35.89473 35.46623,-35.89473 19.58747,0 35.46623,16.07061 35.46623,35.89473 z"
       id="path2985-5-4-4-4-7-4-3-6-8"
       inkscape:connector-curvature="0"
       sodipodi:nodetypes="sssssss" />
    <rect
       style="color:#000000;fill:#000000;fill-opacity:1;fill-rule:nonzero;stroke:none;stroke-width:0.5;marker:none;visibility:visible;display:inline;overflow:visible;enable-background:accumulate"
       id="rect3850-3-5-6-5-4-1-3-4-9-3"
       width="4.660521"
       height="11.233914"
       x="393.31262"
       y="762.79968"
       ry="2.468591"
       rx="1.9979758" />
    <path
       style="color:#000000;fill:#dfe0c5;fill-opacity:1;fill-rule:nonzero;stroke:none;stroke-width:0.5;marker:none;visibility:visible;display:inline;overflow:visible;enable-background:accumulate"
       id="path4229-5-2-8-1"
       d="m 366.00394,734.97184 c -1.20378,1.77888 -0.10176,-0.0445 -0.86678,1.82277 -0.15298,0.37342 -0.6575,0.6854 -0.55526,1.07577 0.083,0.31674 1.0305,0.0231 0.92419,0.33282 -0.72175,2.10235 -2.31283,0.77371 -1.0224,1.66658 -0.13338,0.70314 -0.65504,1.05985 -1.03794,1.59856 -0.0685,0.0964 -0.22748,0.35446 -0.11052,0.33707 1.16392,-0.1731 1.49917,-1.04479 0.9656,-0.037 0.35749,-0.14267 0.69302,-0.3634 1.07247,-0.42801 0.0906,-0.0154 0.0838,0.18759 0.17119,0.21627 0.39285,0.12898 1.56572,-0.39638 1.91495,-0.52111 -0.70379,0.90042 1.31733,-0.58756 1.0392,-0.35034 -1.31439,0.99693 -2.62877,1.99386 -3.94316,2.99079 0.17313,-0.16382 0.74053,-0.58043 0.5194,-0.49147 -1.76749,0.71108 -1.26862,1.4759 -1.67456,0.74025 2e-4,-0.0968 0.0913,-0.32456 5.9e-4,-0.29056 -0.43175,0.16186 -0.75855,0.5318 -1.17455,0.73067 -0.0992,0.0474 -0.0342,-0.27102 0.0621,-0.32379 1.36888,-0.74927 1.02773,-0.66077 2.00778,-0.73738 -0.47342,0.48995 -1.21401,0.66116 -1.67962,1.15638 -0.0609,0.0647 0.16246,0.0721 0.24206,0.1116 0.36995,0.18338 0.65994,0.0437 1.06304,-0.052 -0.13325,0.18924 -0.57057,0.41155 -0.39976,0.56773 0.20004,0.1829 0.51681,-0.16974 0.78378,-0.21661 0.49648,-0.31264 0.10818,0.28439 0.22471,0.27087 0.26304,-0.0305 0.47971,-0.22604 0.72825,-0.31743 0.17257,-0.0635 0.35462,-0.0973 0.53193,-0.14599 0.13797,-0.0579 0.27084,-0.12983 0.41391,-0.17361 0.75173,-0.23002 -0.63541,0.445 0.73897,-0.22877 0.4028,-0.19747 0.74289,-0.59856 1.19055,-0.6275 0.197,-0.0127 0.30235,0.342 0.25621,0.53395 -0.0923,0.38397 -0.41754,0.67042 -0.62632,1.00563 -0.12522,0.24209 -0.51889,2.44847 -0.44979,2.6178 0.0987,0.24195 0.4425,0.27812 0.66375,0.41719 0,0 -3.22152,1.67076 -3.22152,1.67076 l 0,0 c -0.0213,-0.0753 -0.39544,-1.37203 -0.38417,-1.43255 0.0217,-0.11665 0.92159,-1.78929 1.00375,-1.94359 -0.14992,-0.058 -0.31123,-0.0925 -0.44977,-0.17402 -0.0706,-0.0416 -0.0795,-0.19216 -0.16122,-0.18564 -0.63237,0.0505 -1.5134,0.89229 -2.17739,0.93049 0.70712,-1.37414 -0.42779,-0.1021 -1.28702,0.2175 -0.0863,0.0321 -0.0971,-0.18652 -0.0584,-0.27015 0.12572,-0.272 0.80068,-0.62292 0.52164,-0.73212 -0.40344,-0.15789 -0.81023,0.30709 -1.21534,0.46064 0.19992,-0.24954 0.90076,-0.6407 0.59977,-0.74862 -0.46929,-0.16825 -0.93389,0.36984 -1.42553,0.45256 -0.9828,0.16538 -0.46082,-0.26191 -0.27738,-0.60904 0.37683,-0.71307 -0.14224,-0.10468 0.71854,-0.88224 1.43974,-1.36857 0.01,-0.062 4.1121,-2.54432 0.35872,-0.21706 0.67457,-0.50324 1.04383,-0.70185 0.15112,-0.0813 0.97464,0.19703 1.02383,-0.0896 0.17052,0.5688 0.006,0.28451 1.03071,-0.30106 0.12542,-0.0717 0.47864,-0.32286 0.36453,-0.2343 -8.5103,6.60463 -2.99473,2.94008 -2.88017,1.89346 -0.41956,0.23685 -0.79116,0.827 -1.25867,0.71054 -0.3694,-0.092 1.1589,-0.74959 0.78641,-0.82819 -0.48073,-0.10145 -0.84388,0.50554 -1.28441,0.7231 -0.29343,0.14491 -0.58538,0.36041 -0.91264,0.36195 -0.20883,9.8e-4 0.34397,-1.00914 -0.47669,-0.40653 -0.25318,0.0408 -0.62057,0.33805 -0.75953,0.12251 -0.14179,-0.21991 0.38366,-0.41164 0.40499,-0.67243 0.0109,-0.13367 -0.30194,-0.0975 -0.33132,-0.22831 -0.0386,-0.17183 0.30268,-0.3881 0.16756,-0.50105 -0.71102,-0.59434 -1.69123,0.89834 -0.0399,-0.88633 2.55747,-2.76161 0.31045,0.2072 0.71066,-1.48274 0.0877,-0.3702 0.58778,-0.63528 0.52924,-1.01119 -0.0445,-0.28591 -0.7243,-0.1427 -0.75376,-0.43054 -0.0625,-0.6102 0.90298,-1.01114 0.70564,-1.6995 0,0 3.65761,-1.79873 3.65761,-1.79873 z"
       inkscape:connector-curvature="0" />
    <rect
       style="color:#000000;fill:#000000;fill-opacity:1;fill-rule:nonzero;stroke:none;stroke-width:0.5;marker:none;visibility:visible;display:inline;overflow:visible;enable-background:accumulate"
       id="rect3850-3-5-6-5-4-1-3-4-5-7-8"
       width="4.660521"
       height="11.233914"
       x="381.23718"
       y="763.06049"
       ry="2.468591"
       rx="1.9979758" />
    <path
       id="rect3777-20-0-4-7-9-0-0-0-4"
       style="color:#000000;fill:#ffffff;fill-opacity:1;fill-rule:nonzero;stroke:#000000;stroke-width:0.45047644;stroke-miterlimit:4;stroke-opacity:1;marker:none;visibility:visible;display:inline;overflow:visible;enable-background:accumulate"
       d="m 396.73857,782.62795 3.10965,-0.39123 0,3.95091 -3.10965,0.39124 z m -3.22151,0.54779 2.96235,-0.54779 0,3.95092 -2.96235,0.54778 z m -3.4424,0.0782 3.18329,-0.0782 0,3.95091 -3.18329,0.0782 z m -3.29505,-0.1565 3.03599,0.1565 0,3.95091 -3.03599,-0.1565 z m -3.2214,-0.46948 2.96233,0.46948 0,3.95091 -2.96233,-0.46947 z m -3.22151,-0.39123 2.96232,0.39123 0,3.95092 -2.96232,-0.39124 z"
       inkscape:connector-curvature="0"
       sodipodi:nodetypes="cccccccccccccccccccccccccccccc" />
    <path
       style="color:#000000;fill:#d4d6b2;fill-opacity:1;fill-rule:nonzero;stroke:none;stroke-width:0.5;marker:none;visibility:visible;display:inline;overflow:visible;enable-background:accumulate"
       id="path4396-1-5"
       d="m 416.97035,739.97985 c 0.0547,0.46287 -0.58884,0.96844 0.10417,1.28281 0.30902,0.14018 0.7917,-0.10974 1.00642,0.15301 0.18502,0.22639 -0.22472,0.56961 -0.17977,0.85851 0.0316,0.20334 0.25868,0.32011 0.38803,0.48016 -0.39415,0.6897 -1.0186,1.05514 0.0356,1.19268 0.3353,0.0437 0.83797,-0.32802 1.01365,-0.0391 0.44975,0.73964 -1.30659,0.4901 -0.29772,1.0988 -0.94916,0.65098 -0.80932,0.57647 -2.42297,1.40292 -0.11208,0.0574 -0.25043,0.0478 -0.36324,0.1038 -0.39062,0.19373 -0.71083,0.56387 -1.13986,0.64169 -0.1859,0.0337 0.19286,-0.32494 0.28928,-0.48741 -0.22216,0.067 -0.44432,0.13394 -0.66648,0.20091 0.61546,-0.96563 0.2854,-0.17891 -0.28736,-0.39663 -0.0984,-0.0374 -0.007,-0.21038 -0.0103,-0.31557 -0.26223,0.0737 -0.52446,0.14736 -0.78669,0.22105 0,0 2.63694,-1.80226 2.63694,-1.80226 l 0,0 c 0.12639,0.0227 0.26732,0.005 0.37917,0.0682 0.26485,0.14937 0.0765,0.50394 0.63173,0.42667 0.1493,-0.0273 0.30016,-0.11663 0.44791,-0.0819 0.0619,0.0146 -0.0489,0.20296 0.0135,0.1904 0.24486,-0.0493 0.5293,-0.53269 0.6734,-0.32867 0.14465,0.20481 -0.31707,0.39868 -0.52519,0.53852 -0.45051,0.30271 -0.94993,0.52562 -1.43141,0.77617 -0.0474,0.0246 -0.10182,0.0321 -0.15273,0.0482 0.29578,-0.2128 1.21075,-0.97808 1.22943,-1.33429 0.0341,-0.65056 -1.82992,0.0896 -1.34955,-0.92467 -1.11959,-0.86082 -0.0443,0.22456 -0.14768,-1.3434 -0.0548,-0.83102 -1.36166,-0.32637 -1.57756,-0.47596 -0.17556,-0.12165 0.45044,-0.39569 0.31295,-0.55914 -0.1526,-0.18143 -0.47008,0.0619 -0.70512,0.0929 0,0 2.88142,-1.68843 2.88142,-1.68843 z"
       inkscape:connector-curvature="0" />
    <path
       style="color:#000000;fill:#d4d6b2;fill-opacity:1;fill-rule:nonzero;stroke:none;stroke-width:0.5;marker:none;visibility:visible;display:inline;overflow:visible;enable-background:accumulate"
       id="path4402-9-1"
       d="m 420.85765,747.20647 c 0.74326,0.28092 0.21567,-0.0593 -0.0349,0.74974 -0.10067,0.32498 0.31634,0.37792 0.32515,0.648 0.0133,0.40614 -0.55184,0.93626 -0.72912,1.14983 -0.13233,0.27345 -0.41677,0.53412 -0.10883,0.814 0.10589,0.0962 0.38727,0.0292 0.3932,0.17219 0.009,0.21919 -0.31071,0.33579 -0.36329,0.54877 -0.0347,0.14064 0.0987,0.27376 0.12505,0.41621 0.0298,0.16123 0.0282,0.3267 0.0423,0.49005 -0.0351,0.17041 -0.0703,0.34081 -0.10545,0.51122 -0.21439,0.20846 -0.5629,0.33731 -0.64318,0.62536 -0.0434,0.1557 0.32164,-0.0324 0.48245,-0.0486 -0.92515,0.43879 -1.81763,0.9544 -2.77545,1.31638 -0.0995,0.0376 -0.16724,-0.16273 -0.27356,-0.16408 -0.28119,-0.004 -0.55345,0.10005 -0.83017,0.15007 -0.33879,0.0858 -0.68454,0.36704 -1.01636,0.25736 -0.51651,-0.17072 0.82941,-1.07092 0.30245,-1.18478 -0.45796,-0.0989 -0.88567,0.38527 -1.35412,0.37686 -0.33424,-0.006 -0.0915,-0.68072 -0.002,-1.00287 0,0 2.2471,-1.3613 2.2471,-1.3613 l 0,0 c 0.3611,0.0758 0.73195,-0.0149 0.6519,0.51369 -0.0341,0.2254 -0.34885,0.41909 -0.26426,0.63077 0.0701,0.17547 0.43077,-0.0373 0.55747,0.10291 0.57954,0.64122 -1.42445,0.78039 0.86524,0.27691 1.65629,-0.009 1.10079,-0.21399 -0.85399,1.16422 -0.1336,0.0942 0.33314,-0.0792 0.45107,-0.19242 0.14175,-0.13607 0.0249,-0.59484 0.008,-0.70806 0.0194,-0.15951 0.0909,-0.90746 0.18564,-1.05735 0.1693,-0.26789 0.64164,-0.37919 0.6476,-0.69604 0.004,-0.21194 -0.61221,0.15493 -0.63346,-0.056 -0.0421,-0.41814 0.85735,-0.55356 0.63748,-1.08774 -0.8808,-0.63826 0.19205,0.30087 -0.0889,-0.75375 -0.0402,-0.15071 -0.42987,-0.0385 -0.42562,-0.19441 0.007,-0.25382 0.2985,-0.41085 0.44774,-0.61628 -0.0955,-0.0735 -0.24855,-0.1061 -0.28643,-0.22048 -0.0411,-0.12396 0.0579,-0.25464 0.0869,-0.38196 0,0 2.33236,-1.1884 2.33236,-1.1884 z"
       inkscape:connector-curvature="0" />
    <path
       style="color:#000000;fill:#c6c999;fill-opacity:1;fill-rule:nonzero;stroke:none;stroke-width:0.5;marker:none;visibility:visible;display:inline;overflow:visible;enable-background:accumulate"
       id="path4404-0-0"
       d="m 423.14239,755.12949 c -0.15602,0.21513 -0.53658,0.38862 -0.46807,0.64538 0.0661,0.24779 0.70676,0.0262 0.71567,0.28248 0.0157,0.45205 -0.60892,0.73415 -0.66474,1.18302 -0.037,0.29762 0.38359,0.49857 0.41859,0.79642 0.0848,0.72219 -0.52123,1.88814 -0.75988,2.45714 0.8875,1.92944 0.0358,-0.51147 -0.33059,2.0101 -0.0741,0.50987 1.19345,0.2759 0.79137,0.58348 -2.81896,2.15641 -2.27752,2.66661 -3.16798,1.46498 -0.85427,-0.52891 0.004,0.1321 -0.45454,-0.67575 -0.069,-0.12165 -0.28376,-0.13232 -0.32442,-0.26616 -0.0495,-0.16295 0.13554,-0.33844 0.0908,-0.50275 -0.0354,-0.13009 -0.32387,-0.13702 -0.30122,-0.26992 0.0459,-0.26934 0.30836,-0.45113 0.46254,-0.6767 -0.21204,-0.005 -0.5215,0.16425 -0.63614,-0.0142 -0.10766,-0.16758 0.25186,-0.32621 0.29213,-0.52129 0.021,-0.10166 -0.11867,-0.18137 -0.12567,-0.28494 -0.0432,-0.6389 0.46526,-0.5777 -0.51619,-0.80813 -0.0384,-0.0339 -0.50326,-0.41715 -0.49189,-0.50868 0.024,-0.19282 0.28603,-0.29842 0.31484,-0.49058 0.0119,-0.0792 -0.24716,0.0168 -0.23205,-0.0618 0.0239,-0.12438 1.40487,-1.06266 -0.38982,0.21394 0.66921,-4.76698 2.49749,-1.44118 2.10526,-0.80095 -0.13147,0.21458 -0.3717,0.35226 -0.48989,0.57443 -0.0619,0.11629 0.0253,0.27279 -0.0254,0.39433 -0.18983,0.45466 -0.58249,0.65357 -0.95599,0.93518 0.64019,0.96017 -1.73768,1.43505 -2.15451,0.79324 -0.086,-0.13248 -0.0887,-0.30324 -0.13138,-0.45533 -0.0495,-0.17628 -0.1887,-0.3519 -0.14518,-0.52975 0.0805,-0.32882 0.32814,-0.59222 0.4922,-0.88833 0,0 1.40775,-0.74633 1.40775,-0.74633 l 0,0 c 0.071,0.16803 0.15109,0.33252 0.21307,0.50409 0.0602,0.16661 0.0361,0.37587 0.15294,0.50899 0.11329,0.12901 0.30247,0.18407 0.47302,0.20384 0.11074,0.0128 0.20996,-0.075 0.31495,-0.11252 -0.91786,0.55343 -1.83571,1.10685 -2.75356,1.66027 0.301,-0.43491 0.68459,-0.77987 0.92196,-1.26379 0.0668,-0.13626 0.0913,-0.28958 0.13112,-0.43603 0.0326,-0.1199 -0.0119,-0.28641 0.0862,-0.36267 0.78226,-0.60797 1.65519,-1.08931 2.48278,-1.63397 0.76031,0.53546 -0.63254,-0.0863 -0.19595,0.74533 0.2751,0.52401 1.71835,-0.88315 1.76423,-0.19967 0.16423,0.34027 -0.53068,0.53796 -0.79602,0.80695 0.18237,0.0254 0.48176,-0.096 0.54712,0.0761 0.0743,0.19572 -0.26714,0.34091 -0.31104,0.54561 -0.053,0.24728 0.35822,0.36598 0.46709,0.41854 -0.15475,0.82135 -1.0809,0.57165 0.12951,0.67404 0.01,0.12758 0.0497,0.25644 0.0292,0.38275 -0.0291,0.17971 -0.27352,0.36444 -0.1748,0.51739 0.10662,0.16518 0.56066,-0.086 0.57954,0.10968 0.0286,0.29621 -0.56527,0.45161 -0.49742,0.74137 0.073,0.31172 0.83887,-0.22109 0.92834,0.24635 0.84075,-0.15904 1.51754,-0.31831 -1.63972,1.18004 -0.0912,0.0433 -0.13775,-0.18717 -0.10702,-0.28334 0.0928,-0.2904 0.36635,-0.5026 0.45167,-0.79528 0.2207,-0.75709 -0.0501,-1.00114 -0.36398,-1.65382 0.19982,-0.45568 0.40041,-0.91103 0.59946,-1.36705 0.18811,-0.43098 0.56119,-0.82369 0.56203,-1.29393 5.5e-4,-0.30491 -0.39263,-0.4686 -0.55843,-0.7245 -0.5731,-0.88454 -0.26008,-1.03316 0.0685,-1.92187 0,0 2.16961,-1.10548 2.16961,-1.10548 z"
       inkscape:connector-curvature="0" />
    <path
       style="color:#000000;fill:#c6c999;fill-opacity:1;fill-rule:nonzero;stroke:none;stroke-width:0.5;marker:none;visibility:visible;display:inline;overflow:visible;enable-background:accumulate"
       id="path4406-8-6"
       d="m 414.93421,769.23295 c 0.17168,-0.26628 0.51614,-0.64024 0.37825,-1.02247 -0.0608,-0.1685 -0.43807,-0.20282 -0.38575,-0.37414 0.11988,-0.39256 0.66214,-0.55513 0.78876,-0.94557 0.0526,-0.16225 -0.24414,-0.23826 -0.3662,-0.35739 0.14345,-0.21981 0.28691,-0.43963 0.43037,-0.65944 -0.0643,-1.43943 -0.13091,-0.74428 2.93294,-2.13725 0.13295,-0.0604 0.0196,0.29457 0.0656,0.43319 0.0616,0.18571 0.1311,0.37678 0.25359,0.52935 0.13976,0.17408 0.35818,0.26924 0.51508,0.42805 0.18065,0.18285 0.32889,0.39511 0.49334,0.59267 -0.0722,0.80918 0.32588,1.30025 0.77567,1.90773 0.0865,0.11676 0.14495,0.29529 0.28637,0.32856 0.65201,0.15338 0.84806,-0.41358 0.56621,0.15282 -0.61242,0.32064 -1.20279,0.68749 -1.83726,0.96193 -0.0777,0.0336 0.0596,-0.16724 0.1248,-0.22121 0.39622,-0.32784 0.92255,-0.51079 1.24455,-0.91178 0.089,-0.11084 -0.221,-0.22431 -0.21816,-0.36643 0.005,-0.27276 0.50586,-1.0465 0.61434,-1.23019 0,0 1.70206,-0.77274 1.70206,-0.77274 l 0,0 c -0.0115,0.0902 -0.11693,0.97047 -0.15294,1.03286 -0.16941,0.2935 -0.65918,0.43052 -0.66458,0.76936 -0.004,0.22241 0.71228,-0.062 0.64989,0.15149 -0.35068,1.2001 -3.75453,0.2383 -3.27077,1.83602 0.25692,-0.98755 -0.37132,0.0989 -1.06691,-0.57218 -0.75704,-0.73041 0.5171,-1.57964 -1.01675,-1.76437 0.0162,-0.28265 0.22588,-0.62714 0.0487,-0.84795 -0.18184,-0.22659 -0.58989,-0.0448 -0.85694,-0.15923 -0.20406,-0.0874 -0.52869,-0.49307 -0.22669,-0.73192 0.46423,-0.36715 0.97472,-0.69853 1.53224,-0.89724 0.21523,-0.0767 -0.30304,0.34208 -0.45455,0.51312 -0.23914,0.55483 -0.28361,0.50246 -0.28561,1.10678 -5.9e-4,0.17877 0.0926,0.36129 0.0472,0.53423 -0.15232,0.5814 -0.83683,1.20697 -0.63765,1.3648 0.23159,0.18351 0.58343,-0.0941 0.87515,-0.14111 0,0 -2.88435,1.46965 -2.88435,1.46965 z"
       inkscape:connector-curvature="0" />
    <path
       style="color:#000000;fill:#c0c38e;fill-opacity:1;fill-rule:nonzero;stroke:none;stroke-width:0.5;marker:none;visibility:visible;display:inline;overflow:visible;enable-background:accumulate"
       id="path4410-3-7"
       d="m 420.39356,772.39445 c -0.13139,0.1385 0.21626,0.13288 0.16099,0.1973 -0.32017,0.37311 -1.59781,0.9277 -1.62274,1.05535 -0.0916,0.46889 3.4214,-1.55326 -0.25206,0.42287 0.004,0.0533 0.0486,0.12186 0.0111,0.15983 -0.13803,0.13959 -0.32024,0.22834 -0.49087,0.32541 -0.76248,0.43379 -1.48945,0.94833 -2.30702,1.26635 -0.52699,0.20498 -0.0863,-0.53739 -0.1162,-0.7335 -0.0178,-0.11658 -0.14902,-0.18281 -0.22353,-0.27421 0.0288,-0.2095 0.42883,-1.21932 0.3391,-1.3812 -0.0731,-0.13188 -0.46715,-0.0373 -0.41545,-0.17892 0.39358,-1.07823 1.28783,-0.55208 0.35903,-0.94518 0.20247,-0.20306 0.67201,-0.3298 0.60741,-0.60918 -0.0548,-0.2371 -0.46952,0.12865 -0.70158,0.20192 -0.0973,0.0307 -0.20064,0.0534 -0.28565,0.1098 -0.0597,0.0396 -0.11392,0.0995 -0.13368,0.16837 -0.0132,0.0461 0.0709,-0.0652 0.11142,-0.0908 0.50896,-0.32032 1.02409,-0.63075 1.53613,-0.94613 1.34516,-0.37743 0.2962,-0.15799 0.0423,0.23394 -0.29445,0.45451 1.36204,-0.55903 0.76886,0.007 -0.92396,0.88095 -1.84241,0.70942 -0.82336,0.80638 -0.0974,0.12142 -0.22367,0.22448 -0.29216,0.36425 -0.0305,0.0622 0.008,0.13832 0.012,0.20748 -0.01,0.0786 0.007,0.16528 -0.0291,0.23566 -0.0727,0.14136 -0.20505,0.24454 -0.28778,0.38028 -0.50582,0.82993 0.42182,-0.37826 -0.39905,0.63132 -0.22121,0.1607 -0.51363,0.2535 -0.66363,0.48211 -0.0611,0.0932 0.22242,0.0152 0.33375,0.0207 0.96897,0.0477 2.10602,-0.13966 -2.13867,1.1607 -0.15833,0.0485 0.19932,-0.30777 0.1629,-0.46931 -0.0354,-0.15695 -0.2299,-0.22513 -0.34486,-0.3377 -0.27852,-0.0497 -0.85598,0.13294 -0.83556,-0.14926 0.0345,-0.47648 0.73195,-0.65751 0.92553,-1.09426 0.0696,-0.15705 -0.17566,-0.29706 -0.23788,-0.45718 -0.0598,-0.15394 -0.072,-0.32309 -0.12595,-0.47917 -0.24729,-0.71523 -0.1747,-0.0916 -0.19145,-0.87125 0.0428,-0.16663 0.0856,-0.33327 0.12846,-0.4999 0,0 1.68536,-0.86236 1.68536,-0.86236 l 0,0 c 0.069,0.10844 0.138,0.21689 0.20699,0.32533 0.3193,-0.0103 0.96256,-0.3505 0.9579,-0.0311 -0.007,0.46479 -0.76279,0.58483 -0.97204,0.99991 -0.14033,0.27835 0.75049,0.65295 0.74807,0.72177 -0.0189,0.53774 -0.85537,0.85103 -0.61737,1.49149 0.0887,0.10632 0.20719,0.19364 0.26607,0.31896 0.2739,0.58302 -1.73118,1.26152 -1.76358,1.27931 -0.54606,0.29987 0.47202,-0.31748 0.49182,-0.47814 0.0117,-0.0945 -0.1902,-0.011 -0.2853,-0.0165 0.0715,-0.10426 0.12855,-0.22009 0.21454,-0.31278 0.14223,-0.15332 0.53015,-0.22151 0.46568,-0.42047 -0.0613,-0.18911 -0.55841,0.2132 -0.59611,0.018 -0.0747,-0.38661 1.29826,-0.6142 0.74776,-1.00085 0.0357,-0.10278 0.0848,-0.20185 0.10723,-0.30834 0.0158,-0.0749 -0.0217,-0.15811 0.006,-0.22942 0.0407,-0.1049 0.21083,-0.16748 0.19111,-0.27826 -0.0147,-0.0829 -0.27231,0.0361 -0.24856,-0.0446 0.0714,-0.24273 0.44485,-0.30641 0.48748,-0.58176 0.80585,-0.474 1.6117,-0.94801 2.41755,-1.42201 -0.0297,0.0503 -0.22369,0.24614 0.009,0.2539 0.57874,0.0193 0.53735,-0.26972 0.60995,0.41739 0.0844,0.30061 0.21958,0.7362 0.1778,1.05153 -0.0216,0.1627 -0.0964,0.31391 -0.15262,0.46811 -0.0605,0.16594 -0.24592,0.32204 -0.19715,0.49179 0.0391,0.13615 0.25876,0.11537 0.38814,0.17305 0.10352,0.5768 0.12791,0.23578 -0.47651,0.90826 -0.004,0.18444 0.34878,-0.1204 0.52317,-0.1806 -0.53164,0.3581 -1.06328,0.7162 -1.59493,1.0743 -0.0879,0.052 -0.3191,-0.41643 0.0368,-0.30412 0.0839,-0.0485 1.05015,-0.4845 1.0308,-0.72407 -0.006,-0.0696 -0.18757,-0.0435 -0.17662,-0.11243 0.0548,-0.34514 0.66769,-0.3522 0.67904,-0.70705 0,0 2.05163,-0.89766 2.05163,-0.89766 z"
       inkscape:connector-curvature="0" />
    <path
       style="color:#000000;fill:#c0c38e;fill-opacity:1;fill-rule:nonzero;stroke:none;stroke-width:0.5;marker:none;visibility:visible;display:inline;overflow:visible;enable-background:accumulate"
       id="path4412-1-2"
       d="m 414.70651,777.20036 c -0.15382,0.13379 -0.30764,0.26758 -0.46147,0.40138 0.0949,0.0263 0.34728,0.003 0.28482,0.0788 -0.18774,0.22892 -0.49564,0.32399 -0.74543,0.48291 -0.59494,0.3785 -1.16433,0.80172 -1.78874,1.12932 -0.0502,0.0263 -0.0377,-0.1367 -0.0941,-0.14147 -0.18547,-0.0156 -0.36771,0.058 -0.55156,0.087 0.93862,-1.30322 0.15958,0.0626 -0.23802,-0.4863 -0.1126,-0.15545 0.39787,-0.3729 0.26488,-0.51132 -0.16949,-0.17641 -0.61958,0.24004 -0.73353,0.0236 -0.52313,-0.99385 1.30509,-0.34952 0.01,-0.70504 -0.83387,-0.90407 0.63654,0.84653 0.14618,-0.76169 -0.0495,-0.16237 -0.40324,0.20903 -0.50407,0.0725 -0.0906,-0.12265 0.3301,-0.18768 0.30764,-0.33848 -0.0285,-0.19125 -0.89609,0.66686 -0.0398,-0.12268 -0.27283,0.18388 -1.11436,0.69562 -0.8185,0.55166 0.65524,-0.31882 1.26273,-0.72787 1.90147,-1.0786 0.0605,-0.0332 -0.1041,0.0925 -0.1649,0.12506 -0.25441,0.13639 -0.52425,0.24275 -0.77797,0.38043 -0.86643,0.47013 -1.66864,1.05009 -2.50943,1.56465 6.71667,-4.0723 -5.42068,3.2915 1.43398,-0.8765 0,0 -1.83646,0.72387 -1.83646,0.72387 l 0,0 c 0.66768,-0.42019 2.78487,-1.15529 2.00303,-1.26056 -0.0957,-0.0129 -7.28522,4.07888 0.77093,-0.48274 -0.8428,0.47801 -1.74472,0.86425 -2.52839,1.43404 -0.40347,0.29335 0.92319,-0.37954 1.37344,-0.59429 0.96781,-0.46162 -0.27825,0.0101 -0.0819,-0.11503 0.77072,-0.49095 1.58346,-0.91261 2.37746,-1.36494 0.1585,-0.0903 0.31997,-0.17526 0.47996,-0.26288 0.29477,0.0199 0.22119,-0.0552 0.17042,0.26531 0.18716,0.0524 0.38839,-0.15846 0.57421,-0.10145 0.14047,0.0431 -0.20166,1.03557 -0.28229,1.12555 0.24421,-0.0186 0.49797,-0.12596 0.73261,-0.0558 0.10602,0.0317 0.0653,0.213 0.11821,0.31022 0.0499,0.0919 0.18053,0.14728 0.18728,0.25162 0.01,0.14713 -0.067,0.29251 -0.14398,0.41822 -0.1279,0.20875 -0.44701,0.32653 -0.46207,0.57088 -0.009,0.14393 0.28658,-0.0324 0.42987,-0.0486 0.16741,-0.0778 0.44173,-0.40795 0.50222,-0.23352 0.0642,0.18513 -0.28887,0.26775 -0.45348,0.37405 -0.49859,0.32196 -1.00245,0.63925 -1.53169,0.90787 -0.14895,0.0756 -0.51822,0.28103 -0.4873,0.11688 0.0425,-0.22574 0.36535,-0.27862 0.54478,-0.42205 0.19115,-0.15281 0.37789,-0.31106 0.56684,-0.46659 0,0 2.05522,-0.9652 2.05522,-0.9652 z"
       inkscape:connector-curvature="0" />
    <path
       style="color:#000000;fill:#c0c38e;fill-opacity:1;fill-rule:nonzero;stroke:none;stroke-width:0.5;marker:none;visibility:visible;display:inline;overflow:visible;enable-background:accumulate"
       id="path4414-4-1"
       d="m 406.8555,782.69626 c -1.42342,-0.3366 0.22927,0.24238 -0.06,-0.9337 -0.0602,-0.24465 -0.56257,0.0248 -0.73994,-0.15411 -0.14489,-0.14615 0.19184,-1.17101 0.22278,-1.41926 -0.3442,-0.69138 -0.2019,-0.32994 1.82254,-0.94878 0.20296,-0.062 -0.41945,0.22431 -0.46894,0.43069 -0.0287,0.1198 0.23975,0.0894 0.32229,0.18087 0.4591,0.5087 -0.39982,0.83082 -0.71483,1.13369 0.0271,0.43148 0.1668,0.58914 0.15386,1.02919 0,0 -2.5223,1.16407 -2.5223,1.16407 l 0,0 c 0.58221,-0.50527 1.29798,-0.75142 0.46532,-1.27009 -0.0758,-0.20586 -0.24355,-0.52046 -0.0847,-0.74968 0.2006,-0.28941 0.67397,-0.38903 0.76415,-0.72942 0.0477,-0.1801 -0.3708,-0.037 -0.5562,-0.0555 0.83789,-0.4587 1.67579,-0.9174 2.51368,-1.3761 0.10515,-0.0472 -0.0971,0.20907 -0.1456,0.31361 0.0908,0.0236 0.83228,0.19434 0.8324,0.30162 3.5e-4,0.31088 -0.35751,0.51883 -0.45536,0.81391 -0.0603,0.18185 -0.0162,0.38347 -0.005,0.57473 0.0426,0.73288 -0.01,0.48425 0.81287,0.55005 0,0 -2.15693,1.14426 -2.15693,1.14426 z"
       inkscape:connector-curvature="0" />
    <path
       style="color:#000000;fill:#c0c38e;fill-opacity:1;fill-rule:nonzero;stroke:none;stroke-width:0.5;marker:none;visibility:visible;display:inline;overflow:visible;enable-background:accumulate"
       id="path4416-3-5"
       d="m 404.6174,787.97773 c -0.0834,-0.42261 0.4794,-0.60206 0.50423,-0.96378 0.009,-0.1354 -0.24915,-0.11355 -0.35665,-0.1964 -0.0851,-0.0656 -0.19159,-0.1369 -0.21252,-0.24226 -0.0221,-0.11132 0.17083,-0.23709 0.0997,-0.32554 -0.0741,-0.0921 -0.23637,0.006 -0.35455,0.009 -0.51917,0.0995 -0.94243,0.45197 -0.62247,-0.26379 0,0 1.5411,-1.18286 1.5411,-1.18286 l 0,0 c 0.41416,-0.0451 0.82964,-0.15274 1.2405,-0.0271 0.22523,-0.005 0.48588,-0.13546 0.67569,-0.0141 0.11376,0.0727 -0.0718,0.26302 -0.0752,0.39799 -0.003,0.12006 0.0399,0.2369 0.0566,0.35583 0.0864,0.61556 -0.0964,0.14818 0.38202,0.49247 0.0642,0.0462 0.0891,0.13062 0.1336,0.19593 0,0 -3.01216,1.76503 -3.01216,1.76503 z"
       inkscape:connector-curvature="0" />
    <path
       style="color:#000000;fill:#dfe0c5;fill-opacity:1;fill-rule:nonzero;stroke:none;stroke-width:0.5;marker:none;visibility:visible;display:inline;overflow:visible;enable-background:accumulate"
       id="path6934"
       d="m 408.88055,731.47498 c -0.25254,0.90168 -0.0149,-0.34334 0.55428,0.2702 0.12718,0.13709 -0.29697,0.33914 -0.22755,0.51279 0.013,0.0325 0.97442,0.19225 0.97294,0.22606 -0.013,0.29899 -0.35554,0.48151 -0.53331,0.72226 0.12231,0.0672 0.24462,0.13431 0.36693,0.20146 0.0179,0.12394 -0.0383,0.28698 0.0538,0.37181 0.12156,0.11194 0.32398,0.0686 0.48085,0.12057 0.11676,0.0387 0.34431,0.0275 0.33703,0.15025 -0.0456,0.77017 -0.64431,0.24008 -0.22379,0.55785 -0.71401,0.84041 -0.33106,0.42783 -2.59332,1.46622 -0.0626,0.0288 0.11233,-0.20255 0.0434,-0.20215 -0.19346,10e-4 -0.36242,0.27456 -0.54298,0.20506 -0.12021,-0.0463 0.0946,-0.23964 0.14185,-0.35946 -0.12559,-0.002 -0.25119,-0.004 -0.37678,-0.007 -0.24778,0.081 -0.49556,0.16191 -0.74334,0.24286 -0.0193,-0.0752 0.009,-0.18689 -0.058,-0.22553 -0.10278,-0.059 -0.33629,0.10527 -0.35532,-0.0117 -0.0285,-0.17501 0.38234,-0.30775 0.27981,-0.45241 -0.1022,-0.1442 -0.34572,0.0741 -0.517,0.11776 -0.18729,0.0477 -0.37225,0.10417 -0.55838,0.15626 -0.17643,0.0474 -0.35287,0.0949 -0.52931,0.14235 0.0406,-0.0898 0.21918,-0.28568 0.12191,-0.26952 -0.21248,0.0353 -0.73725,0.44545 -0.54916,0.34051 2.913,-1.62523 2.33128,-1.51399 1.51209,-0.70306 2.0347,0.19399 -0.67697,-0.26704 0.39768,0.73526 0.23879,0.22272 0.71191,-0.15524 0.97907,0.0325 0.17285,0.12148 -0.0901,0.42985 -0.0321,0.633 0.34487,1.20753 0.45277,-0.46805 0.24991,0.93572 0.23907,-0.0113 0.70748,-0.27317 0.7172,-0.034 0.0126,0.31089 -0.46543,0.41317 -0.69316,0.62519 -0.36803,0.34264 -0.36794,0.38582 0.0937,0.30305 -0.66838,0.36707 -1.33677,0.73414 -2.00516,1.10122 -0.11009,0.0425 -0.23286,0.19408 -0.33029,0.12749 -0.0809,-0.0553 0.23157,-0.25456 0.13384,-0.26176 -0.19878,-0.0147 -0.36629,0.15743 -0.55155,0.23097 -0.18353,0.0729 -0.36974,0.13875 -0.55462,0.20813 0,0 1.64244,-1.21187 1.64244,-1.21187 l 0,0 c 0.27423,-0.13997 0.53014,-0.32397 0.82271,-0.4199 0.0868,-0.0285 -0.005,0.28564 0.0387,0.27117 0.2378,-0.15641 0.4756,-0.31283 0.71341,-0.46925 -0.76835,0.4584 -1.55169,0.89253 -2.30503,1.37519 -0.17075,0.1094 0.37376,-0.15866 0.55334,-0.25288 0.14231,-0.0747 0.42204,-0.0926 0.41052,-0.25286 -0.0105,-0.14686 -0.2878,0.20883 -0.41855,0.14113 -0.15192,-0.0787 0.56543,-0.40298 0.0446,-0.51129 -0.49416,-0.36295 -0.30725,-0.12224 -0.52496,-0.74852 -0.18362,-0.154 -0.6348,0.008 -0.68221,-0.22691 -0.0654,-0.32414 0.55083,-0.56186 0.45891,-0.8795 -0.54579,-1.88594 -1.11638,1.44438 -0.61856,-0.70424 -3e-5,-0.0752 0.0488,-0.1684 -9e-5,-0.2255 -0.0615,-0.0718 -0.347,-0.0353 -0.26929,-0.0891 4.72786,-3.27629 1.16307,-0.92223 3.27551,-1.45032 -0.0436,0.11464 -0.22685,0.26771 -0.13076,0.34393 0.12392,0.0983 0.31034,-0.0693 0.46836,-0.0761 0.10601,-0.005 0.20938,0.0413 0.31547,0.0424 0.14694,10e-4 0.2993,-0.079 0.43945,-0.0348 0.073,0.023 0.0328,0.17379 0.10248,0.20554 0.11466,0.0523 0.25186,0.009 0.37779,0.0134 0.34805,0.21106 0.0842,0.11388 0.64197,0.0204 0.083,-0.0139 0.2896,-0.0917 0.25191,-0.0165 -0.26556,0.53016 -2.48392,1.48351 -1.27444,0.95784 -0.12606,0.0317 -0.33308,0.21703 -0.37817,0.0951 -0.0504,-0.13638 0.24279,-0.18602 0.29426,-0.322 0.0935,-0.2471 -0.31995,-0.3338 -0.37578,-0.43933 -0.0585,-0.11061 -8.1e-4,-0.25063 -0.0126,-0.37521 -0.0117,-0.1232 -0.0385,-0.24449 -0.0578,-0.36674 -0.0455,-0.11039 -0.0425,-0.25745 -0.13645,-0.33117 -0.12053,-0.0946 -0.41745,0.0277 -0.44279,-0.12345 -0.0365,-0.2179 0.46038,-0.40272 0.32525,-0.57751 -0.14464,-0.18711 -0.48956,0.18704 -0.70408,0.0875 -0.11574,-0.0537 0.0614,-0.24771 0.092,-0.37157 -0.1326,-0.003 -0.26519,-0.005 -0.39779,-0.008 0,0 1.99898,-1.27992 1.99898,-1.27992 z"
       inkscape:connector-curvature="0" />
    <path
       style="color:#000000;fill:#d3d5b0;fill-opacity:1;fill-rule:nonzero;stroke:none;stroke-width:0.5;marker:none;visibility:visible;display:inline;overflow:visible;enable-background:accumulate"
       id="path6936"
       d="m 353.99907,763.07618 c 0.34875,-0.4157 -0.45946,-0.0191 -0.41421,-0.16006 0.15118,-0.47094 0.96103,-0.47396 1.15815,-0.9276 0.0427,-0.0982 -0.20679,-0.0555 -0.31019,-0.0833 0.0962,-0.11566 0.19233,-0.23132 0.28849,-0.34698 0.0669,-0.0975 0.25566,-0.18772 0.20082,-0.29251 -0.0535,-0.10231 -0.44466,0.0751 -0.34609,0.0149 0.5729,-0.34956 1.17137,-0.66703 1.8,-0.90204 0.22744,-0.085 0.45041,0.37643 0.46169,0.47347 0.0258,0.22174 -0.0439,0.44431 -0.0658,0.66647 -0.62605,2.73414 0.0827,-0.85773 -0.0856,1.79185 -0.007,0.11266 -0.48433,1.7575 -0.28869,1.99961 0.94411,1.16839 1.51838,-0.84139 0.56287,1.19274 0.0412,0.18143 -0.0219,0.42839 0.12368,0.54428 0.18812,0.14978 0.7144,-0.11991 0.71127,0.12054 -0.005,0.34821 -0.51674,0.47363 -0.72265,0.75448 -0.0498,0.0679 0.31197,-0.126 0.23573,-0.0904 -1.51909,0.71019 -1.28231,1.15817 -1.52841,0.42113 0.0888,-0.18648 0.18141,-0.37116 0.26628,-0.55944 0.11242,-0.24936 0.33269,-0.47984 0.3255,-0.75329 -0.0101,-0.38253 -0.80483,-0.53252 -0.70889,-0.90296 0.0983,-0.37973 0.47318,-0.62573 0.70978,-0.9386 0,0 2.07368,-1.05316 2.07368,-1.05316 l 0,0 c -0.0316,0.20968 -0.005,0.43717 -0.0949,0.62905 -0.16397,0.34851 -0.60912,0.57211 -0.6504,0.95505 -0.0228,0.21125 0.48532,0.17664 0.50561,0.38814 0.0444,0.46246 -0.62362,0.79142 -0.5038,1.29951 0.21366,0.027 0.80505,-0.0586 0.64098,0.0809 -0.5946,0.5056 -1.35623,0.77469 -2.05534,1.12172 -0.29272,0.1453 -0.60398,0.45355 -0.91481,0.35262 -0.19936,-0.0647 0.25451,-0.34746 0.30183,-0.55166 0.0873,-0.3767 -0.16197,-0.67414 -0.32792,-0.96648 -0.3096,-0.82456 -0.19473,-0.38305 -0.31972,-1.33075 -0.0773,-0.25283 -0.39033,-0.45274 -0.34647,-0.71346 0.0474,-0.28195 1.17317,-1.70073 0.76313,-2.29865 -0.18704,-0.27276 -0.63168,-0.19622 -0.94753,-0.29433 0.21827,-0.31818 0.62551,-0.5698 0.6548,-0.95453 0.0147,-0.19309 -0.38727,-0.0288 -0.57699,-0.0676 -0.0349,-0.007 -0.11301,-0.0481 -0.083,-0.0674 0.73464,-0.47331 1.49183,-0.91181 2.25731,-1.33344 0.21991,-0.12112 -0.69988,0.40324 -0.50467,0.55909 0.92739,0.34438 -0.36006,0.39284 -0.21412,0.75165 0.0785,0.19298 0.40982,-0.11135 0.6176,-0.096 0.17962,0.0133 -0.52088,0.92003 -0.2868,0.45794 0,0 -2.36223,1.10939 -2.36223,1.10939 z"
       inkscape:connector-curvature="0" />
    <path
       style="color:#000000;fill:#ced0a7;fill-opacity:1;fill-rule:nonzero;stroke:none;stroke-width:0.5;marker:none;visibility:visible;display:inline;overflow:visible;enable-background:accumulate"
       id="path6938"
       d="m 359.92803,773.95787 c 0.16798,-0.10059 0.31312,-0.25793 0.50394,-0.30175 0.0753,-0.0173 -0.083,0.1337 -0.10022,0.20903 -0.004,0.0193 0.0258,0.0511 0.043,0.0411 0.24396,-0.14101 0.43581,-0.37799 0.7016,-0.47154 -0.28795,0.35601 -0.37836,0.36533 -0.104,0.25207 -1.18301,0.72665 -4.17923,1.43914 1.49568,-0.95527 0.16919,-0.0714 -0.38703,0.30779 -0.29382,0.46601 0.0899,0.15267 0.35014,-0.0824 0.52693,-0.0703 0.11072,0.008 0.20503,0.085 0.30754,0.12751 -0.19539,0.22803 -0.6163,0.38532 -0.58616,0.68409 0.0219,0.21651 0.43868,-0.072 0.65217,-0.0299 0.0793,0.0157 0.0789,0.15501 0.15242,0.18878 0.082,0.0376 0.19017,-0.0354 0.27055,0.006 0.0356,0.0181 -0.0438,0.0674 -0.0722,0.0954 -0.0127,0.0126 0.0161,-0.0319 0.0241,-0.0479 -5.11635,2.64436 0.32574,-0.17373 0.59124,-0.28473 0.0866,-0.0362 0.16474,0.0905 0.25085,0.12775 0.10678,0.0462 0.21741,0.0831 0.32693,0.12244 0.12261,0.044 0.38443,-0.002 0.3694,0.12767 -0.0289,0.24911 -0.30259,0.40001 -0.45389,0.60002 0.0953,0.0638 0.25148,0.082 0.28595,0.19142 0.043,0.13636 -0.0682,0.27788 -0.0937,0.41854 -0.024,0.13175 -0.0467,0.26432 -0.0548,0.39799 -0.0597,0.98597 -0.006,-0.19203 0.22798,0.6266 0.0361,0.1265 -0.0223,0.26215 -0.0334,0.39322 3.2e-4,0.11176 -0.10901,0.31543 9.7e-4,0.33527 0.27979,0.0505 0.54917,-0.1632 0.83265,-0.18489 0.0844,-0.006 0.26457,0.0252 0.23205,0.10342 -0.10436,0.25089 -0.57341,0.34912 -0.53199,0.61767 0.0318,0.2061 0.417,-0.007 0.62551,-0.0113 0,0 -1.70344,1.12145 -1.70344,1.12145 l 0,0 c -0.12911,-0.0618 -0.25823,-0.12358 -0.38734,-0.18537 0.0673,-0.1462 0.32645,-0.33651 0.20201,-0.43861 -0.16696,-0.13699 -0.43568,0.13571 -0.64337,0.0765 -0.0957,-0.0273 -0.0591,-0.19017 -0.0886,-0.28525 -0.15006,-0.0367 -0.30012,-0.0735 -0.45017,-0.11019 -0.004,-0.11948 -0.0462,-0.24351 -0.0133,-0.35845 0.017,-0.0594 0.4843,-0.8863 0.45163,-1.00744 -0.054,-0.20027 -0.84823,-0.1896 -0.87982,-0.23448 -0.0898,-0.12762 0.10623,-0.29349 0.15935,-0.44023 -0.57892,-0.2369 -0.17059,0.0496 -0.20611,-0.45526 -0.005,-0.0645 -0.13048,-0.0747 -0.13493,-0.13919 -0.006,-0.0859 0.0399,-0.18291 0.10919,-0.23394 0.23368,-0.17209 4.37195,-2.65154 -0.72265,0.48551 0.0343,-0.35334 0.0293,0.14882 -0.28597,-0.12835 -0.0618,-0.0543 0.0652,-0.17579 0.022,-0.24578 -0.0542,-0.0878 -0.27033,-0.0506 -0.26867,-0.15374 0.003,-0.18826 0.29631,-0.30363 0.27905,-0.49112 -0.0107,-0.11641 -0.22272,-0.0711 -0.33408,-0.10666 0.0192,-0.0951 0.10923,-0.20329 0.0576,-0.28546 -0.11972,-0.19036 -0.75929,0.16684 -0.72627,0.14555 0.78685,-0.50739 4.29731,-2.35111 -0.58651,0.30897 -0.4756,0.078 0.1814,-0.0465 -0.94077,0.57389 -0.0373,0.0206 0.0821,-0.12573 0.0397,-0.12133 -0.11641,0.0121 -0.93447,0.39712 -1.01641,0.42686 0,0 1.97052,-1.49197 1.97052,-1.49197 z"
       inkscape:connector-curvature="0" />
    <path
       style="color:#000000;fill:#eaebd9;fill-opacity:1;fill-rule:nonzero;stroke:none;stroke-width:0.5;marker:none;visibility:visible;display:inline;overflow:visible;enable-background:accumulate"
       id="path6940"
       d="m 374.74543,732.08496 c 0.1891,-0.16005 0.78284,-0.64413 0.84687,-0.80714 0.0414,-0.10532 -0.12872,-0.18613 -0.19308,-0.27919 -0.0403,-0.1115 -0.16803,-0.22573 -0.12088,-0.33451 1.15119,-2.65602 0.22435,0.52649 0.6459,-1.01641 0.0995,-0.1427 0.27381,-0.2559 0.29846,-0.4281 -0.24144,-0.15051 -0.26015,-0.0672 -0.17579,-0.32663 0.31468,-0.9677 1.7242,-1.15688 2.66385,-1.21582 -0.44723,0.88107 -0.032,-0.14842 0.72115,0.0666 0.18083,0.0516 -0.2891,0.27667 -0.32476,0.46131 -0.0164,0.0848 0.12119,0.13795 0.20512,0.15826 0.56367,0.1364 0.56101,-0.22413 0.41269,0.30768 0.16289,-0.03 0.32336,-0.0797 0.48867,-0.0901 0.59957,-0.038 -0.27722,0.3826 0.77423,-0.20695 0.18345,-0.10286 0.71066,-0.44925 0.52632,-0.34798 -6.21898,3.41637 -1.5825,0.93925 -1.38026,0.83173 -0.15202,0.0206 -0.32209,0.13671 -0.45605,0.0619 -0.0813,-0.0454 0.13383,-0.13593 0.16946,-0.22192 0.023,-0.0554 -0.0362,-0.12995 -0.003,-0.17986 0.0927,-0.13913 0.32421,-0.18813 0.35717,-0.352 0.0185,-0.0917 -0.18354,-0.0367 -0.27531,-0.055 0.31638,-0.2102 0.63276,-0.4204 0.94914,-0.6306 0.0775,-0.41956 0.18607,-0.39012 -0.375,-0.34096 0,0 2.47877,-1.08712 2.47877,-1.08712 l 0,0 c -0.4355,0.47179 0.14308,0.16431 -0.3898,0.62844 0.29173,0.23479 0.10574,0.0131 0.17213,0.32948 0.101,0.48132 0.44338,-0.42535 -0.48727,0.62489 -0.0521,0.0588 -0.0466,0.15013 -0.0699,0.2252 -0.0783,0.0846 -0.15661,0.16929 -0.23492,0.25394 -0.94118,0.58177 -1.84074,1.23149 -2.80073,1.78165 -0.0696,0.0399 0.18774,-0.2309 0.10919,-0.21451 -0.27025,0.0564 -0.47875,0.30476 -0.75134,0.34847 -0.18359,0.0294 0.0388,-0.76875 -0.45736,-0.31934 -1.97549,0.1627 0.29948,0.14647 -0.41928,-0.33963 -0.16023,-0.10837 -0.61546,0.28524 -0.57219,0.0967 0.0747,-0.3253 0.92537,-0.44797 0.71167,-0.70434 -0.29593,-0.35502 -0.88597,0.61672 -1.31939,0.42622 1.15623,-1.03287 0.13906,-0.19952 1.87998,-1.30452 0.12834,-0.0815 -0.35579,0.0608 -0.40806,0.20358 -0.0391,0.10684 0.37428,-0.12849 0.34074,-0.0198 -0.12072,0.3914 -0.80938,0.41744 -0.85077,0.88662 0.97657,0.25112 0.033,-0.12885 -0.16267,0.78 -0.0319,0.14829 0.40944,0.0394 0.41304,0.19099 0.005,0.23035 -0.36263,0.33913 -0.39503,0.56726 -0.0161,0.11315 0.19204,0.12395 0.28806,0.18593 -0.45013,0.25276 -0.90026,0.50552 -1.35039,0.75829 0,0 -1.47942,0.64729 -1.47942,0.64729 z"
       inkscape:connector-curvature="0" />
  </g>
  <g
     inkscape:groupmode="layer"
     id="layer7"
     inkscape:label="text"
     sodipodi:insensitive="true"
     transform="translate(-192,-200)">
    <text
       xml:space="preserve"
       style="font-size:57.01311874px;font-style:normal;font-variant:normal;font-weight:normal;font-stretch:normal;text-align:start;line-height:125%;letter-spacing:0px;word-spacing:0px;writing-mode:lr-tb;text-anchor:start;fill:#4072ad;fill-opacity:1;stroke:none;display:inline;font-family:ProFontWindows;-inkscape-font-specification:ProFontWindows"
       x="255.81976"
       y="455.38733"
       id="text4784"
       sodipodi:linespacing="125%"><tspan
         sodipodi:role="line"
         id="tspan4786"
         x="255.81976"
         y="455.38733">deathspeak</tspan></text>
  </g>
</svg>
